<svg xmlns="http://www.w3.org/2000/svg" width="15.845" height="14.672" viewBox="0 0 15.845 14.672">
  <g id="auth_icon" transform="translate(0 -0.018)">
    <g id="Сгруппировать_1" data-name="Сгруппировать 1" transform="translate(0 0.018)">
      <path id="Контур_1" data-name="Контур 1" d="M15.845,14.195v.5H0v-.5c.014-.055.028-.124.041-.179.069-.4.1-.812.206-1.211a3.117,3.117,0,0,1,1.776-2.23c.661-.289,1.335-.564,2.01-.826.564-.22,1.143-.4,1.707-.633a1.043,1.043,0,0,0,.523-.977.139.139,0,0,0-.055-.1A7.336,7.336,0,0,1,5.094,5.7,7.514,7.514,0,0,1,4.8,2.163,2.415,2.415,0,0,1,6.718.153,5.066,5.066,0,0,1,8.852.112a2.474,2.474,0,0,1,2.12,2.244,6.839,6.839,0,0,1-.041,2.12A8.24,8.24,0,0,1,9.65,7.89.483.483,0,0,0,9.581,8a1.215,1.215,0,0,0,.454,1.088,7.966,7.966,0,0,0,.785.344c.826.317,1.652.592,2.478.922a4.307,4.307,0,0,1,1.459.895,3.506,3.506,0,0,1,.922,1.858C15.762,13.479,15.79,13.837,15.845,14.195Z" transform="translate(0 -0.018)" fill="#aaaaa9"/>
    </g>
  </g>
</svg>
